<svg width="301" height="407" viewBox="0 0 301 407" fill="none" xmlns="http://www.w3.org/2000/svg">
<path d="M118.605 218.078L108.353 194.596L107.214 186.553V177.518L108.353 165.777L111.771 148.699L120.884 138.026L132.275 116.679L137.97 102.803L144.805 84.658L150.5 72.9171L159.613 63.3109L167.587 57.9741L174.421 54.772L180.117 52.6373L186.951 51.5699H197.203H208.594L225.681 53.7047L241.628 55.8394L247.323 57.9741L255.297 64.3782L260.993 75.0518L263.271 85.7254L265.549 100.668L266.688 109.207L267.827 118.813V124.15L266.688 130.554L265.549 140.161L266.688 146.565L267.827 155.104L270.105 162.575L271.244 173.249L270.105 181.788L267.827 192.461L264.41 203.135L262.132 215.943L260.993 217.01L257.575 225.549L250.741 237.29L242.767 249.031L235.932 258.637L229.098 265.041L224.541 267.176L214.29 270.378H197.203L180.117 263.974L155.056 252.233L135.692 239.425L126.579 228.751L118.605 218.078Z" fill="#D3A29C"/>
<path d="M161.224 102.161L160.872 102.198C157.032 102.597 153.306 103.741 149.901 105.563C148.028 106.567 146.267 107.768 144.649 109.146L140.818 112.409L137.685 115.078L136.119 116.412L135.336 117.079C135.213 117.184 135.338 117.378 135.484 117.31L136.831 116.679L139.109 115.611L141.706 114.395C144.523 113.075 147.471 112.052 150.5 111.342L155.285 110.595C156.649 110.382 158.028 110.275 159.409 110.275C161.06 110.275 162.708 110.428 164.331 110.732L167.586 111.342L175.56 113.477L183.534 116.679L195.277 121.264C196.362 121.687 197.59 121.2 198.089 120.148L198.975 118.28L200.747 114.544C201.296 113.387 200.756 112.006 199.567 111.529L199.101 111.342L196.444 110.275L193.786 109.207L175.56 103.87L174.538 103.551C172.943 103.053 171.314 102.674 169.663 102.416L169.365 102.369C166.672 101.949 163.935 101.879 161.224 102.161Z" fill="#171716"/>
<path d="M263.307 108.966L266.688 111.342C267.415 112.023 267.827 112.974 267.827 113.97V118.547C267.827 119.053 267.223 119.315 266.853 118.969L266.688 118.813L265.309 117.521C264.713 116.963 264.033 116.502 263.294 116.156C262.524 115.795 261.7 115.564 260.855 115.47L260.27 115.405C259.238 115.291 258.195 115.319 257.17 115.49L256.436 115.611C252.646 116.322 248.925 117.359 245.315 118.713L245.045 118.813L239.35 120.948L233.282 123.385C232.215 123.813 231 123.328 230.522 122.282L229.667 120.415L228.813 118.547C228.34 117.512 228.789 116.29 229.819 115.807L232.515 114.544L240.489 111.342L247.323 109.207L251.88 108.14L256.597 107.403C257.99 107.186 259.414 107.291 260.76 107.712C261.669 107.995 262.528 108.419 263.307 108.966Z" fill="#171716"/>
<path d="M215.691 205.433L217.748 206.719C218.395 207.123 219.233 207.041 219.79 206.519C219.919 206.398 220.067 206.299 220.227 206.224L221.858 205.459C222.126 205.333 222.373 205.166 222.589 204.964C223.112 204.474 223.8 204.202 224.516 204.202H224.86C225.4 204.202 225.934 204.321 226.424 204.55L227.959 205.269L228.396 205.406C230.357 206.019 232.155 207.067 233.654 208.472L235.465 210.168C237.291 211.879 239.279 213.409 241.402 214.734C241.55 214.827 241.671 214.957 241.753 215.111L242.057 215.68C242.509 216.528 242.583 217.526 242.262 218.431L241.901 219.445C241.72 219.954 241.469 220.436 241.156 220.876L239.35 223.415L238.859 224.028C236.91 226.462 234.79 228.754 232.515 230.886L230.367 232.899C229.523 233.69 228.604 234.397 227.623 235.009C226.333 235.815 224.946 236.452 223.494 236.906L222.263 237.29C220.763 237.993 219.126 238.358 217.469 238.358H216.568C215.058 238.358 213.556 238.129 212.115 237.678L210.872 237.29L208.594 236.223L205.177 234.088C203.661 233.378 202.21 232.537 200.84 231.574L198.342 229.819L195.551 227.204C194.382 226.108 193.401 224.828 192.647 223.415L190.368 219.145L188.09 213.808H188.9C189.867 213.808 190.823 213.596 191.699 213.185C192.327 212.891 192.904 212.499 193.411 212.025L194.057 211.419C194.634 210.878 195.262 210.395 195.933 209.976L198.342 208.472L200.62 207.404L202.898 206.337L205.177 205.269L205.392 205.169C206.751 204.532 208.233 204.202 209.733 204.202H212.011H213.037C213.842 204.202 214.616 204.508 215.203 205.058C215.353 205.199 215.516 205.324 215.691 205.433Z" fill="#912E26"/>
<g filter="url(#filter0_i_211_36)">
<path d="M188.09 213.808L193.786 218.078L197.203 220.212H201.759L206.316 219.145L209.733 218.078H210.872L214.289 219.145L216.568 220.212L219.985 219.145L223.402 218.078L226.82 220.212L230.237 221.28H234.793L238.211 220.212L242.767 217.01" stroke="black" stroke-opacity="0.5"/>
</g>
<path d="M188.09 51.5699H191.508H194.925H198.342H202.899H207.455L213.15 52.6373L217.707 53.7046L231.376 54.772L240.489 55.8393L245.045 56.9067L248.462 59.0414L251.88 62.2435L255.297 64.3782L258.714 70.7823L262.132 81.4559L264.41 94.2642L266.688 110.275L267.827 114.544V123.083L266.688 128.42V131.622L265.549 140.161L266.688 146.565L267.827 155.104L270.105 162.575L271.244 174.316L270.105 182.855L267.827 191.394L264.41 203.135L260.993 215.943L259.853 219.145L256.436 229.819L247.323 242.627L239.35 255.435L237.072 260.772L232.515 268.243L229.098 274.648L222.263 281.052L213.15 286.389L208.594 290.658L199.481 297.062L191.508 305.601L184.673 312.005L178.978 321.611L174.421 332.285L166.447 339.756L163.03 351.497V363.238L165.308 373.912V379.249L184.673 377.114H202.899C208.214 376.758 219.074 376.047 219.985 376.047C220.896 376.047 228.718 372.489 232.515 370.71L246.184 353.632L248.462 347.228L250.741 332.285C252.259 330.506 255.525 326.735 256.436 325.881C257.347 325.027 261.372 319.832 263.271 317.342L271.244 309.87C273.902 307.736 279.218 303.253 279.218 302.399C279.218 301.545 283.015 298.485 284.914 297.062C286.432 296.351 289.698 294.714 290.609 293.86C291.52 293.006 298.203 289.591 299.722 287.456C300.102 286.389 298.583 282.76 298.583 281.052C298.583 278.917 300.861 274.648 300.861 272.513V263.974C299.722 257.57 297.444 244.335 297.444 242.627V229.819V220.212C297.444 219.359 298.962 212.741 299.722 209.539L300.861 201V194.596V189.259L297.444 176.451L295.165 167.912L292.887 159.373L290.609 152.969C290.229 149.411 289.242 142.082 288.331 141.228C287.42 140.374 286.432 135.891 286.053 133.756L282.635 123.083L280.357 108.14C281.496 102.803 283.775 91.7026 283.775 89.9948V80.3886C283.395 77.8981 282.635 72.7036 282.635 71.8497C282.635 70.9958 281.117 65.8014 280.357 63.3108L276.94 59.0414L274.662 52.6373L272.384 45.1658L266.688 37.6943L260.993 30.2228L255.297 24.886L246.184 19.5492L237.072 15.2798L227.959 13.1451H223.402H216.568L214.29 11.0103L208.594 7.80826L204.038 4.60619L193.786 1.40412L186.951 0.336761H173.282L163.03 4.60619L155.056 11.0103L147.083 16.3471L141.387 21.6839L135.692 23.8186L128.857 27.0207L123.162 30.2228L115.188 34.4922L108.353 38.7616L103.797 43.0311L99.2407 47.3005L95.8234 52.6373L93.5452 61.1761L88.9888 68.6476L86.7106 76.1191L84.4324 84.658L81.0151 92.1295L77.5978 101.736L76.4587 112.409L73.0414 123.083L70.7632 134.824L67.3459 145.497L65.0677 154.036L62.7895 158.306L59.3722 163.642L55.955 173.249L53.6768 184.99L51.3986 195.663V203.135V212.741L54.8159 221.28L57.0941 226.617V236.223L55.955 250.098L53.6768 266.109L51.3986 274.648L46.8422 286.389L42.2858 295.995L38.8685 301.332L35.4512 306.668L30.8948 313.072L26.3384 319.477L25.1993 325.881L19.5038 333.352L16.0865 341.891L12.6692 348.295L10.391 355.767L8.11284 361.104L6.97375 370.71L3.55645 380.316L0.13916 384.585L1.27826 389.922V395.259V404.865H3.55645H16.0865H27.4775H104.936L116.327 405.933H123.162H125.44V403.798L128.857 402.73L133.414 398.461L136.831 396.326V393.124L142.526 388.855V393.124V400.596L144.805 396.326L147.083 392.057V381.383V376.047V370.71V366.44L151.639 370.71L156.196 373.912L158.474 376.047L159.613 370.71V363.238L156.196 353.632L151.639 348.295L147.083 341.891L142.526 335.487L139.109 330.15L141.387 323.746L142.526 319.477V306.668L141.387 289.591L136.831 270.378L131.135 246.896L127.718 237.29L125.44 227.684L118.605 218.078L107.214 201L104.936 190.326L102.658 179.653V172.181L104.936 163.642L109.493 151.902L111.771 148.699L116.327 143.363L122.023 136.959L125.44 129.487L128.857 123.083L134.553 112.409L137.97 101.736L144.805 89.9948L149.361 81.4559L152.778 71.8497L157.335 65.4456L160.752 63.3108L168.726 57.9741L174.421 54.772L180.117 53.7046L188.09 51.5699Z" fill="#151818"/>
<path d="M93.545 166.844L99.2405 146.565L109.492 135.891L93.545 146.565L85.5714 148.699L82.1541 151.901L76.4586 157.238L71.9022 166.844C70.3834 168.623 67.3458 173.035 67.3458 176.451C67.3458 179.866 64.3082 187.124 62.7894 190.326V197.798V207.404L59.3721 217.01V224.482V230.886L52.5375 217.01L49.1202 203.135L51.3984 192.461L54.8157 176.451L57.0939 167.912L65.0676 154.036L71.9022 146.565L78.7368 135.891L85.5714 126.285L93.545 112.409L99.2405 108.14L103.797 112.409L109.492 115.611H114.049H122.022L133.413 112.409L118.605 129.487L110.632 155.104L109.492 163.642L107.214 177.518V187.124L111.771 201.178L116.327 212.741L119.744 221.28V235.155L122.022 249.031L125.44 261.839V279.984V290.658L122.022 308.803L118.605 323.746L117.466 333.352L114.049 342.958L112.91 350.43L109.492 360.036L107.214 366.44L106.075 374.979L104.936 381.383L109.492 388.855L122.022 398.461L125.44 403.798V405.933H112.91L98.1014 404.865L92.406 398.461V388.855L88.9887 379.249L92.406 366.44L95.8232 355.767L100.38 345.093L102.658 336.554L104.936 328.015L107.214 317.342L109.492 298.129L104.936 273.58L99.2405 249.031L95.8232 230.886L88.9887 212.741V197.798V186.057L93.545 166.844Z" fill="#085881"/>
<path d="M275.801 112.409L279.218 102.803L281.496 106.005L282.635 112.409V122.015L286.053 131.622L288.331 141.228L289.47 144.43L290.609 152.969L292.887 159.373L295.165 166.844L296.304 170.047L298.583 180.72L300.861 189.259L295.165 186.057L289.47 178.585L287.192 173.249L282.635 166.844L275.801 156.171L272.383 146.565V129.487L275.801 112.409Z" fill="#085881"/>
<path d="M219.985 279.984L227.959 268.243L234.793 261.839L235.932 258.637L238.21 255.435L239.35 253.3L242.228 249.536L246.184 243.694L248.462 240.492L250.741 237.29L254.158 228.751L259.853 219.145V233.021L256.436 245.829L250.741 261.839V273.58L242.767 288.523L234.793 295.995L222.263 306.668L210.872 315.207L200.62 323.746L192.647 334.42L182.395 346.161L173.282 360.036V371.777L165.308 379.249V373.912L163.03 363.238V352.565L166.447 339.756L173.282 332.285L180.116 320.544L182.395 308.803L188.09 303.466L196.064 298.129L207.455 288.523L215.428 283.186L219.985 279.984Z" fill="#085881"/>
<path d="M109.501 115.725C109.63 115.534 109.855 115.459 110.086 115.459C110.182 115.459 110.289 115.423 110.289 115.533C110.289 115.615 110.224 115.696 110.131 115.696C110.11 115.696 109.914 115.706 109.981 115.643C110.017 115.61 110.235 115.611 110.289 115.605C110.431 115.591 110.289 115.521 110.219 115.518C110.153 115.516 110.087 115.518 110.021 115.518C109.778 115.518 109.552 115.598 109.311 115.607C109.02 115.618 109.256 115.607 109.415 115.607C109.474 115.607 110 115.612 109.939 115.564C109.796 115.453 109.618 115.407 109.455 115.331C109.368 115.291 109.809 115.45 109.713 115.458C109.383 115.482 109.016 115.43 108.709 115.318C108.39 115.202 108.887 115.364 108.952 115.389C109.085 115.439 109.212 115.497 109.34 115.558C109.453 115.612 109.462 115.614 109.368 115.535C109.185 115.382 108.999 115.251 108.789 115.134C108.747 115.111 108.999 115.124 109.052 115.157C109.229 115.268 108.649 115.026 108.456 114.941C108.411 114.921 108.386 114.908 108.442 114.952C108.555 115.039 108.673 115.119 108.8 115.187C108.999 115.293 109.075 115.249 109.297 115.275C109.471 115.296 109.639 115.338 109.806 115.387C109.89 115.412 110.137 115.462 110.051 115.482C109.792 115.543 109.402 115.307 109.156 115.246C109.118 115.237 109.003 115.22 109.042 115.223C109.251 115.239 109.453 115.304 109.651 115.364C109.727 115.387 110.43 115.61 109.988 115.535C109.883 115.517 109.521 115.412 109.856 115.448C110.036 115.467 110.215 115.49 110.394 115.512C110.441 115.518 110.617 115.539 110.675 115.548C110.701 115.552 110.77 115.552 110.752 115.571C110.702 115.623 110.505 115.545 110.778 115.599C110.944 115.632 111.104 115.686 111.27 115.719C111.352 115.735 111.104 115.715 111.022 115.709C110.867 115.698 110.713 115.684 110.559 115.673C110.352 115.658 110.664 115.65 110.682 115.647C110.894 115.608 111.077 115.578 111.295 115.578C111.457 115.578 110.97 115.576 110.808 115.578C110.785 115.578 110.762 115.578 110.739 115.578C110.709 115.578 110.8 115.578 110.831 115.578C110.943 115.578 111.015 115.572 111.111 115.517C111.19 115.471 111.25 115.427 111.344 115.43C111.406 115.431 111.474 115.445 111.533 115.461C111.592 115.477 111.474 115.492 111.474 115.492C111.392 115.536 111.36 115.55 111.249 115.548C111.142 115.546 111.463 115.468 111.507 115.459C111.646 115.431 111.764 115.387 111.891 115.348C112.166 115.263 113.05 115.312 112.76 115.312C112.458 115.312 112.157 115.312 111.856 115.312C111.533 115.312 112.034 115.312 112.09 115.312C112.255 115.312 112.42 115.312 112.584 115.312C112.635 115.312 112.779 115.304 112.735 115.328C112.466 115.475 112.064 115.439 111.771 115.543C111.656 115.584 112.134 115.581 112.185 115.584C112.264 115.589 112.341 115.597 112.42 115.605C112.436 115.607 112.102 115.607 112.082 115.607C111.953 115.607 111.343 115.607 111.827 115.607C112.11 115.607 112.393 115.606 112.675 115.607C112.746 115.607 112.93 115.585 112.886 115.637C112.796 115.74 112.274 115.689 112.141 115.694C112.115 115.695 111.987 115.697 112.139 115.696C112.378 115.694 112.616 115.684 112.854 115.666C113.018 115.654 113.452 115.651 113.04 115.622C112.928 115.614 112.747 115.637 112.644 115.589C112.557 115.548 112.826 115.516 112.923 115.504C113.105 115.48 113.288 115.46 113.471 115.443C113.5 115.44 113.821 115.432 113.576 115.43C113.239 115.427 112.232 115.43 112.567 115.394C112.857 115.362 113.189 115.338 113.48 115.372C113.597 115.386 113.011 115.43 113.129 115.43C113.289 115.43 113.767 115.404 113.608 115.4C113.146 115.389 112.683 115.4 112.222 115.4C112.105 115.4 111.757 115.4 111.873 115.4C112.053 115.4 112.233 115.4 112.413 115.4C112.595 115.4 112.777 115.398 112.959 115.4C113.043 115.401 113.034 115.417 112.949 115.436C112.838 115.462 112.197 115.518 112.628 115.518C112.875 115.518 113.122 115.518 113.369 115.518C113.51 115.518 113.743 115.481 113.884 115.525C114.097 115.591 113.437 115.548 113.213 115.548C112.999 115.548 113.218 115.548 113.28 115.548C113.511 115.548 113.744 115.554 113.974 115.532C114.368 115.493 113.659 115.514 113.597 115.518C113.416 115.531 113.222 115.528 113.043 115.563C112.847 115.601 113.442 115.603 113.643 115.605C113.676 115.606 114.163 115.621 114.102 115.63C113.679 115.695 113.201 115.665 112.774 115.666C112.532 115.667 112.29 115.666 112.048 115.666C112.021 115.666 111.592 115.666 111.917 115.666C112.151 115.666 112.854 115.639 112.619 115.637C112.212 115.632 111.804 115.637 111.396 115.637C111.331 115.637 111.246 115.646 111.37 115.615C111.539 115.573 111.713 115.535 111.878 115.481C111.917 115.468 111.798 115.46 111.757 115.459C111.641 115.457 111.504 115.464 111.396 115.413C111.375 115.403 111.509 115.327 111.447 115.289C111.381 115.247 111.238 115.3 111.176 115.275C111.126 115.256 110.96 115.258 111.015 115.253C111.183 115.237 111.349 115.221 111.516 115.193C111.573 115.184 112.104 115.134 111.794 115.134C111.611 115.134 111.457 115.129 111.281 115.088C111.256 115.083 111.18 115.075 111.205 115.075C111.36 115.075 111.511 115.043 111.663 115.016C111.817 114.989 112.009 114.933 112.167 114.973C112.211 114.984 112.219 115.013 112.174 115.029C111.958 115.108 111.666 115.111 111.439 115.134C111.26 115.152 110.741 115.159 110.908 115.221C111.035 115.269 111.266 115.223 111.403 115.223C111.655 115.223 111.341 115.325 111.246 115.335C111.176 115.341 110.979 115.399 111.118 115.341C111.133 115.335 110.981 115.31 111.169 115.282C111.26 115.269 111.815 115.182 111.861 115.284C111.885 115.338 111.245 115.334 111.183 115.348C111.087 115.37 110.993 115.411 110.899 115.44C110.839 115.458 110.667 115.494 110.727 115.512C110.875 115.555 110.901 115.516 110.683 115.533C110.38 115.557 110.532 115.524 110.727 115.469C110.884 115.425 111.125 115.369 111.246 115.256C111.269 115.234 110.758 115.281 110.738 115.285C110.546 115.324 110.361 115.389 110.168 115.42C110.047 115.439 109.948 115.433 110.163 115.412C110.357 115.392 110.552 115.372 110.745 115.341C110.749 115.34 111.047 115.262 111.036 115.259C110.764 115.194 110.398 115.318 110.123 115.338C110.042 115.344 110.005 115.342 110.088 115.289C110.238 115.191 110.412 115.129 110.576 115.057C110.695 115.006 110.636 115.025 110.562 115.039C110.358 115.077 110.154 115.116 109.949 115.151C109.876 115.163 109.698 115.215 109.62 115.182C109.551 115.153 109.719 115.02 109.741 115.008C109.794 114.978 109.864 114.958 109.925 114.947C110.037 114.928 109.71 115.02 109.599 115.046C109.34 115.107 109.077 115.162 108.814 115.203C108.78 115.208 108.564 115.251 108.698 115.167C108.746 115.137 109.211 114.931 109.175 115.003C109.144 115.064 108.866 115.139 109.091 115.128C109.464 115.109 109.83 115.111 110.203 115.134C110.437 115.149 110.271 115.197 110.263 115.179C110.245 115.137 110.414 115.098 110.223 115.082C110.097 115.071 109.966 115.081 109.841 115.092C109.837 115.092 109.585 115.131 109.597 115.136C109.73 115.194 110.166 115.253 110.019 115.253C109.598 115.253 109.182 115.19 108.763 115.154C108.756 115.153 108.296 115.109 108.555 115.105C108.584 115.104 108.85 115.085 108.7 115.062C108.59 115.045 107.915 115.085 108.29 114.931C108.353 114.905 108.428 114.898 108.488 114.868C108.512 114.856 108.222 114.845 108.204 114.845C108.137 114.848 107.957 114.822 108.004 114.867C108.028 114.889 108.14 114.868 108.106 114.868C107.77 114.868 107.433 114.868 107.097 114.868C107.079 114.868 107.027 114.87 107.044 114.868C107.117 114.86 107.09 114.866 107.184 114.849C107.329 114.822 107.474 114.798 107.619 114.773C107.874 114.729 107.101 114.75 106.841 114.75C106.768 114.75 106.559 114.75 106.624 114.717C106.755 114.651 106.928 114.637 107.072 114.606C107.457 114.523 106.906 114.617 106.81 114.632C106.697 114.65 106.379 114.779 106.379 114.602" stroke="#085881" stroke-width="0.1" stroke-linecap="round"/>
<g filter="url(#filter1_i_211_36)">
<path d="M131.135 247.964L126.579 234.088L125.44 227.684L128.857 229.819L132.274 234.088L133.414 235.155L134.553 236.223L136.831 239.425L140.248 241.56L144.804 244.762L151.639 249.031L156.195 251.166L159.613 253.301L165.308 256.503L169.865 258.637L174.421 260.772L178.977 262.907L183.534 265.041L186.951 266.109L194.925 269.311L197.203 270.378H201.759H206.316H209.733H214.289L217.707 269.311L221.124 268.244L235.932 258.637L234.793 261.839L224.541 273.58V277.85C223.402 278.561 220.896 280.198 219.985 281.052C219.074 281.906 216.568 283.542 215.429 284.254C213.91 285.677 210.417 288.737 208.594 289.591C206.771 290.445 204.038 292.081 202.898 292.793L197.203 298.13L191.507 303.466L184.673 308.803L182.395 313.073L178.977 322.679L175.56 329.083L171.004 335.487L167.586 340.824L164.169 347.228L163.03 353.632H156.195L153.917 351.497L148.222 344.026L142.526 335.487L137.97 329.083L141.387 322.679L142.526 320.544V316.275V308.803V300.264L141.387 294.927L137.97 284.254L136.831 273.58L134.553 263.974L133.414 255.435L131.135 247.964Z" fill="#C9958E"/>
</g>
<path d="M42.2858 275.715L51.3986 274.648L50.2595 277.85L49.1204 281.052L46.8422 286.389L44.564 291.725L42.2858 295.995C41.5264 297.774 38.1369 301.635 37.7294 302.399C36.5903 304.534 36.5903 303.466 36.5903 304.534L35.4512 306.668L30.8948 313.072L27.4775 318.409L25.1993 325.881L18.3647 335.487L17.2256 339.756L13.8083 346.161L11.5301 351.497L10.391 355.767L8.11284 361.104V368.575L5.83465 374.979L3.55645 380.316L0.13916 384.585V307.736L4.69555 304.534L9.25194 299.197L13.8083 293.86L18.3647 289.591L22.9211 285.321L26.3384 282.119L32.0339 279.984L36.5903 277.85L42.2858 275.715Z" fill="#D3A29C"/>
<path d="M283.774 298.13L299.722 287.456V344.026V403.798L291.748 407H286.053H278.079H270.105H255.297L253.019 402.731L248.462 393.124L247.323 384.586L245.045 378.181L243.906 372.845V367.508V362.171V354.7L247.323 348.295L249.601 344.026V338.689L250.741 332.285L253.019 330.15L255.297 325.881L259.853 322.679L264.41 315.207L271.244 308.803L275.801 306.668L279.218 302.399L280.357 300.264L283.774 298.13Z" fill="#D09A96"/>
<path d="M147.083 405.933L178.977 381.384L185.812 376.047L219.985 361.104L245.045 350.43L243.906 356.834V366.441L245.045 377.114L247.323 386.72L249.601 396.327L253.019 402.731L255.297 407L147.083 405.933Z" fill="#111111"/>
<path d="M184.673 377.114L147.083 405.933H125.44V403.798L128.857 402.73L133.414 398.461L136.831 396.326V395.259V393.124L142.526 388.855V400.596L147.083 392.057V366.44L151.639 370.71L156.195 373.912L158.474 376.047L159.613 370.71V363.238L156.195 353.632H163.03V357.901V363.238L165.308 373.912V379.249L184.673 377.114Z" fill="#C8948D"/>
<defs>
<filter id="filter0_i_211_36" x="187.79" y="213.408" width="55.2642" height="12.3716" filterUnits="userSpaceOnUse" color-interpolation-filters="sRGB">
<feFlood flood-opacity="0" result="BackgroundImageFix"/>
<feBlend mode="normal" in="SourceGraphic" in2="BackgroundImageFix" result="shape"/>
<feColorMatrix in="SourceAlpha" type="matrix" values="0 0 0 0 0 0 0 0 0 0 0 0 0 0 0 0 0 0 127 0" result="hardAlpha"/>
<feOffset dy="4"/>
<feGaussianBlur stdDeviation="30"/>
<feComposite in2="hardAlpha" operator="arithmetic" k2="-1" k3="1"/>
<feColorMatrix type="matrix" values="0 0 0 0 0.7625 0 0 0 0 0.40349 0 0 0 0 0.40349 0 0 0 0.35 0"/>
<feBlend mode="darken" in2="shape" result="effect1_innerShadow_211_36"/>
</filter>
<filter id="filter1_i_211_36" x="125.44" y="227.684" width="110.492" height="129.948" filterUnits="userSpaceOnUse" color-interpolation-filters="sRGB">
<feFlood flood-opacity="0" result="BackgroundImageFix"/>
<feBlend mode="normal" in="SourceGraphic" in2="BackgroundImageFix" result="shape"/>
<feColorMatrix in="SourceAlpha" type="matrix" values="0 0 0 0 0 0 0 0 0 0 0 0 0 0 0 0 0 0 127 0" result="hardAlpha"/>
<feOffset dy="4"/>
<feGaussianBlur stdDeviation="3"/>
<feComposite in2="hardAlpha" operator="arithmetic" k2="-1" k3="1"/>
<feColorMatrix type="matrix" values="0 0 0 0 0.495833 0 0 0 0 0.373836 0 0 0 0 0.357413 0 0 0 0.25 0"/>
<feBlend mode="normal" in2="shape" result="effect1_innerShadow_211_36"/>
</filter>
</defs>
</svg>
