<svg width="303" height="412" viewBox="0 0 303 412" fill="none" xmlns="http://www.w3.org/2000/svg">
<path d="M119.605 223.078L109.353 199.596L108.214 191.553V182.518L109.353 170.777L112.771 153.699L121.884 143.026L133.275 121.679L138.97 107.803L145.805 89.658L151.5 77.9171L160.613 68.3109L168.587 62.9741L175.421 59.772L181.117 57.6373L187.951 56.5699H198.203H209.594L226.681 58.7047L242.628 60.8394L248.323 62.9741L256.297 69.3782L261.993 80.0518L264.271 90.7254L266.549 105.668L267.688 114.207L268.827 123.813V129.15L267.688 135.554L266.549 145.161L267.688 151.565L268.827 160.104L271.105 167.575L272.244 178.249L271.105 186.788L268.827 197.461L265.41 208.135L263.132 220.943L261.993 222.01L258.575 230.549L251.741 242.29L243.767 254.031L236.932 263.637L230.098 270.041L225.541 272.176L215.29 275.378H198.203L181.117 268.974L156.056 257.233L136.692 244.425L127.579 233.751L119.605 223.078Z" fill="#D3A29C"/>
<path d="M162.224 107.161L161.872 107.198C158.032 107.597 154.306 108.741 150.901 110.563C149.028 111.567 147.267 112.768 145.649 114.146L141.818 117.409L138.685 120.078L137.119 121.412L136.336 122.079C136.213 122.184 136.338 122.378 136.484 122.31L137.831 121.679L140.109 120.611L142.706 119.395C145.523 118.075 148.471 117.052 151.5 116.342L156.285 115.595C157.649 115.382 159.028 115.275 160.409 115.275C162.06 115.275 163.708 115.428 165.331 115.732L168.586 116.342L176.56 118.477L184.534 121.679L196.277 126.264C197.362 126.687 198.59 126.2 199.089 125.148L199.975 123.28L201.747 119.544C202.296 118.387 201.756 117.006 200.567 116.529L200.101 116.342L197.444 115.275L194.786 114.207L176.56 108.87L175.538 108.551C173.943 108.053 172.314 107.674 170.663 107.416L170.365 107.369C167.672 106.949 164.935 106.879 162.224 107.161Z" fill="#171716"/>
<path d="M264.307 113.966L267.688 116.342C268.415 117.023 268.827 117.974 268.827 118.97V123.547C268.827 124.053 268.223 124.315 267.853 123.969L267.688 123.813L266.309 122.521C265.713 121.963 265.033 121.502 264.294 121.156C263.524 120.795 262.7 120.564 261.855 120.47L261.27 120.405C260.238 120.291 259.195 120.319 258.17 120.49L257.436 120.611C253.646 121.322 249.925 122.359 246.315 123.713L246.045 123.813L240.35 125.948L234.282 128.385C233.215 128.813 232 128.328 231.522 127.282L230.667 125.415L229.813 123.547C229.34 122.512 229.789 121.29 230.819 120.807L233.515 119.544L241.489 116.342L248.323 114.207L252.88 113.14L257.597 112.403C258.99 112.186 260.414 112.291 261.76 112.712C262.669 112.995 263.528 113.419 264.307 113.966Z" fill="#171716"/>
<path d="M216.691 210.433L218.748 211.719C219.395 212.123 220.233 212.041 220.79 211.519C220.919 211.398 221.067 211.299 221.227 211.224L222.858 210.459C223.126 210.333 223.373 210.166 223.589 209.964C224.112 209.474 224.8 209.202 225.516 209.202H225.86C226.4 209.202 226.934 209.321 227.424 209.55L228.959 210.269L229.396 210.406C231.357 211.019 233.155 212.067 234.654 213.472L236.465 215.168C238.291 216.879 240.279 218.409 242.402 219.734C242.55 219.827 242.671 219.957 242.753 220.111L243.057 220.68C243.509 221.528 243.583 222.526 243.262 223.431L242.901 224.445C242.72 224.954 242.469 225.436 242.156 225.876L240.35 228.415L239.859 229.028C237.91 231.462 235.79 233.754 233.515 235.886L231.367 237.899C230.523 238.69 229.604 239.397 228.623 240.009C227.333 240.815 225.946 241.452 224.494 241.906L223.263 242.29C221.763 242.993 220.126 243.358 218.469 243.358H217.568C216.058 243.358 214.556 243.129 213.115 242.678L211.872 242.29L209.594 241.223L206.177 239.088C204.661 238.378 203.21 237.537 201.84 236.574L199.342 234.819L196.551 232.204C195.382 231.108 194.401 229.828 193.647 228.415L191.368 224.145L189.09 218.808H189.9C190.867 218.808 191.823 218.596 192.699 218.185C193.327 217.891 193.904 217.499 194.411 217.025L195.057 216.419C195.634 215.878 196.262 215.395 196.933 214.976L199.342 213.472L201.62 212.404L203.898 211.337L206.177 210.269L206.392 210.169C207.751 209.532 209.233 209.202 210.733 209.202H213.011H214.037C214.842 209.202 215.616 209.508 216.203 210.058C216.353 210.199 216.516 210.324 216.691 210.433Z" fill="#912E26"/>
<g filter="url(#filter0_i_211_35)">
<path d="M189.09 218.808L194.786 223.078L198.203 225.212H202.759L207.316 224.145L210.733 223.078H211.872L215.289 224.145L217.568 225.212L220.985 224.145L224.402 223.078L227.82 225.212L231.237 226.28H235.793L239.211 225.212L243.767 222.01" stroke="black" stroke-opacity="0.5"/>
</g>
<path d="M189.09 56.5699H192.508H195.925H199.342H203.899H208.455L214.15 57.6373L218.707 58.7046L232.376 59.772L241.489 60.8393L246.045 61.9067L249.462 64.0414L252.88 67.2435L256.297 69.3782L259.714 75.7823L263.132 86.4559L265.41 99.2642L267.688 115.275L268.827 119.544V128.083L267.688 133.42V136.622L266.549 145.161L267.688 151.565L268.827 160.104L271.105 167.575L272.244 179.316L271.105 187.855L268.827 196.394L265.41 208.135L261.993 220.943L260.853 224.145L257.436 234.819L248.323 247.627L240.35 260.435L238.072 265.772L233.515 273.243L230.098 279.648L223.263 286.052L214.15 291.389L209.594 295.658L200.481 302.062L192.508 310.601L185.673 317.005L179.978 326.611L175.421 337.285L167.447 344.756L164.03 356.497V368.238L166.308 378.912V384.249L185.673 382.114H203.899C209.214 381.758 220.074 381.047 220.985 381.047C221.896 381.047 229.718 377.489 233.515 375.71L247.184 358.632L249.462 352.228L251.741 337.285C253.259 335.506 256.525 331.735 257.436 330.881C258.347 330.027 262.372 324.832 264.271 322.342L272.244 314.87C274.902 312.736 280.218 308.253 280.218 307.399C280.218 306.545 284.015 303.485 285.914 302.062C287.432 301.351 290.698 299.714 291.609 298.86C292.52 298.006 299.203 294.591 300.722 292.456C301.102 291.389 299.583 287.76 299.583 286.052C299.583 283.917 301.861 279.648 301.861 277.513V268.974C300.722 262.57 298.444 249.335 298.444 247.627V234.819V225.212C298.444 224.359 299.962 217.741 300.722 214.539L301.861 206V199.596V194.259L298.444 181.451L296.165 172.912L293.887 164.373L291.609 157.969C291.229 154.411 290.242 147.082 289.331 146.228C288.42 145.374 287.432 140.891 287.053 138.756L283.635 128.083L281.357 113.14C282.496 107.803 284.775 96.7026 284.775 94.9948V85.3886C284.395 82.8981 283.635 77.7036 283.635 76.8497C283.635 75.9958 282.117 70.8014 281.357 68.3108L277.94 64.0414L275.662 57.6373L273.384 50.1658L267.688 42.6943L261.993 35.2228L256.297 29.886L247.184 24.5492L238.072 20.2798L228.959 18.1451H224.402H217.568L215.29 16.0103L209.594 12.8083L205.038 9.60619L194.786 6.40412L187.951 5.33676H174.282L164.03 9.60619L156.056 16.0103L148.083 21.3471L142.387 26.6839L136.692 28.8186L129.857 32.0207L124.162 35.2228L116.188 39.4922L109.353 43.7616L104.797 48.0311L100.241 52.3005L96.8234 57.6373L94.5452 66.1761L89.9888 73.6476L87.7106 81.1191L85.4324 89.658L82.0151 97.1295L78.5978 106.736L77.4587 117.409L74.0414 128.083L71.7632 139.824L68.3459 150.497L66.0677 159.036L63.7895 163.306L60.3722 168.642L56.955 178.249L54.6768 189.99L52.3986 200.663V208.135V217.741L55.8159 226.28L58.0941 231.617V241.223L56.955 255.098L54.6768 271.109L52.3986 279.648L47.8422 291.389L43.2858 300.995L39.8685 306.332L36.4512 311.668L31.8948 318.072L27.3384 324.477L26.1993 330.881L20.5038 338.352L17.0865 346.891L13.6692 353.295L11.391 360.767L9.11284 366.104L7.97375 375.71L4.55645 385.316L1.13916 389.585L2.27826 394.922V400.259V409.865H4.55645H17.0865H28.4775H105.936L117.327 410.933H124.162H126.44V408.798L129.857 407.73L134.414 403.461L137.831 401.326V398.124L143.526 393.855V398.124V405.596L145.805 401.326L148.083 397.057V386.383V381.047V375.71V371.44L152.639 375.71L157.196 378.912L159.474 381.047L160.613 375.71V368.238L157.196 358.632L152.639 353.295L148.083 346.891L143.526 340.487L140.109 335.15L142.387 328.746L143.526 324.477V311.668L142.387 294.591L137.831 275.378L132.135 251.896L128.718 242.29L126.44 232.684L119.605 223.078L108.214 206L105.936 195.326L103.658 184.653V177.181L105.936 168.642L110.493 156.902L112.771 153.699L117.327 148.363L123.023 141.959L126.44 134.487L129.857 128.083L135.553 117.409L138.97 106.736L145.805 94.9948L150.361 86.4559L153.778 76.8497L158.335 70.4456L161.752 68.3108L169.726 62.9741L175.421 59.772L181.117 58.7046L189.09 56.5699Z" fill="#151818"/>
<path d="M94.545 171.844L100.241 151.565L110.492 140.891L94.545 151.565L86.5714 153.699L83.1541 156.901L77.4586 162.238L72.9022 171.844C71.3834 173.623 68.3458 178.035 68.3458 181.451C68.3458 184.866 65.3082 192.124 63.7894 195.326V202.798V212.404L60.3721 222.01V229.482V235.886L53.5375 222.01L50.1202 208.135L52.3984 197.461L55.8157 181.451L58.0939 172.912L66.0676 159.036L72.9022 151.565L79.7368 140.891L86.5714 131.285L94.545 117.409L100.241 113.14L104.797 117.409L110.492 120.611H115.049H123.022L134.413 117.409L119.605 134.487L111.632 160.104L110.492 168.642L108.214 182.518V192.124L112.771 206.178L117.327 217.741L120.744 226.28V240.155L123.022 254.031L126.44 266.839V284.984V295.658L123.022 313.803L119.605 328.746L118.466 338.352L115.049 347.958L113.91 355.43L110.492 365.036L108.214 371.44L107.075 379.979L105.936 386.383L110.492 393.855L123.022 403.461L126.44 408.798V410.933H113.91L99.1014 409.865L93.406 403.461V393.855L89.9887 384.249L93.406 371.44L96.8232 360.767L101.38 350.093L103.658 341.554L105.936 333.015L108.214 322.342L110.492 303.129L105.936 278.58L100.241 254.031L96.8232 235.886L89.9887 217.741V202.798V191.057L94.545 171.844Z" fill="#085881"/>
<path d="M276.801 117.409L280.218 107.803L282.496 111.005L283.635 117.409V127.015L287.053 136.622L289.331 146.228L290.47 149.43L291.609 157.969L293.887 164.373L296.165 171.844L297.304 175.047L299.583 185.72L301.861 194.259L296.165 191.057L290.47 183.585L288.192 178.249L283.635 171.844L276.801 161.171L273.383 151.565V134.487L276.801 117.409Z" fill="#085881"/>
<path d="M220.985 284.984L228.959 273.243L235.793 266.839L236.932 263.637L239.21 260.435L240.35 258.3L243.228 254.536L247.184 248.694L249.462 245.492L251.741 242.29L255.158 233.751L260.853 224.145V238.021L257.436 250.829L251.741 266.839V278.58L243.767 293.523L235.793 300.995L223.263 311.668L211.872 320.207L201.62 328.746L193.647 339.42L183.395 351.161L174.282 365.036V376.777L166.308 384.249V378.912L164.03 368.238V357.565L167.447 344.756L174.282 337.285L181.116 325.544L183.395 313.803L189.09 308.466L197.064 303.129L208.455 293.523L216.428 288.186L220.985 284.984Z" fill="#085881"/>
<path d="M110.501 120.725C110.63 120.534 110.855 120.459 111.086 120.459C111.182 120.459 111.289 120.423 111.289 120.533C111.289 120.615 111.224 120.696 111.131 120.696C111.11 120.696 110.914 120.706 110.981 120.643C111.017 120.61 111.235 120.611 111.289 120.605C111.431 120.591 111.289 120.521 111.219 120.518C111.153 120.516 111.087 120.518 111.021 120.518C110.778 120.518 110.552 120.598 110.311 120.607C110.02 120.618 110.256 120.607 110.415 120.607C110.474 120.607 111 120.612 110.939 120.564C110.796 120.453 110.618 120.407 110.455 120.331C110.368 120.291 110.809 120.45 110.713 120.458C110.383 120.482 110.016 120.43 109.709 120.318C109.39 120.202 109.887 120.364 109.952 120.389C110.085 120.439 110.212 120.497 110.34 120.558C110.453 120.612 110.462 120.614 110.368 120.535C110.185 120.382 109.999 120.251 109.789 120.134C109.747 120.111 109.999 120.124 110.052 120.157C110.229 120.268 109.649 120.026 109.456 119.941C109.411 119.921 109.386 119.908 109.442 119.952C109.555 120.039 109.673 120.119 109.8 120.187C109.999 120.293 110.075 120.249 110.297 120.275C110.471 120.296 110.639 120.338 110.806 120.387C110.89 120.412 111.137 120.462 111.051 120.482C110.792 120.543 110.402 120.307 110.156 120.246C110.118 120.237 110.003 120.22 110.042 120.223C110.251 120.239 110.453 120.304 110.651 120.364C110.727 120.387 111.43 120.61 110.988 120.535C110.883 120.517 110.521 120.412 110.856 120.448C111.036 120.467 111.215 120.49 111.394 120.512C111.441 120.518 111.617 120.539 111.675 120.548C111.701 120.552 111.77 120.552 111.752 120.571C111.702 120.623 111.505 120.545 111.778 120.599C111.944 120.632 112.104 120.686 112.27 120.719C112.352 120.735 112.104 120.715 112.022 120.709C111.867 120.698 111.713 120.684 111.559 120.673C111.352 120.658 111.664 120.65 111.682 120.647C111.894 120.608 112.077 120.578 112.295 120.578C112.457 120.578 111.97 120.576 111.808 120.578C111.785 120.578 111.762 120.578 111.739 120.578C111.709 120.578 111.8 120.578 111.831 120.578C111.943 120.578 112.015 120.572 112.111 120.517C112.19 120.471 112.25 120.427 112.344 120.43C112.406 120.431 112.474 120.445 112.533 120.461C112.592 120.477 112.474 120.492 112.474 120.492C112.392 120.536 112.36 120.55 112.249 120.548C112.142 120.546 112.463 120.468 112.507 120.459C112.646 120.431 112.764 120.387 112.891 120.348C113.166 120.263 114.05 120.312 113.76 120.312C113.458 120.312 113.157 120.312 112.856 120.312C112.533 120.312 113.034 120.312 113.09 120.312C113.255 120.312 113.42 120.312 113.584 120.312C113.635 120.312 113.779 120.304 113.735 120.328C113.466 120.475 113.064 120.439 112.771 120.543C112.656 120.584 113.134 120.581 113.185 120.584C113.264 120.589 113.341 120.597 113.42 120.605C113.436 120.607 113.102 120.607 113.082 120.607C112.953 120.607 112.343 120.607 112.827 120.607C113.11 120.607 113.393 120.606 113.675 120.607C113.746 120.607 113.93 120.585 113.886 120.637C113.796 120.74 113.274 120.689 113.141 120.694C113.115 120.695 112.987 120.697 113.139 120.696C113.378 120.694 113.616 120.684 113.854 120.666C114.018 120.654 114.452 120.651 114.04 120.622C113.928 120.614 113.747 120.637 113.644 120.589C113.557 120.548 113.826 120.516 113.923 120.504C114.105 120.48 114.288 120.46 114.471 120.443C114.5 120.44 114.821 120.432 114.576 120.43C114.239 120.427 113.232 120.43 113.567 120.394C113.857 120.362 114.189 120.338 114.48 120.372C114.597 120.386 114.011 120.43 114.129 120.43C114.289 120.43 114.767 120.404 114.608 120.4C114.146 120.389 113.683 120.4 113.222 120.4C113.105 120.4 112.757 120.4 112.873 120.4C113.053 120.4 113.233 120.4 113.413 120.4C113.595 120.4 113.777 120.398 113.959 120.4C114.043 120.401 114.034 120.417 113.949 120.436C113.838 120.462 113.197 120.518 113.628 120.518C113.875 120.518 114.122 120.518 114.369 120.518C114.51 120.518 114.743 120.481 114.884 120.525C115.097 120.591 114.437 120.548 114.213 120.548C113.999 120.548 114.218 120.548 114.28 120.548C114.511 120.548 114.744 120.554 114.974 120.532C115.368 120.493 114.659 120.514 114.597 120.518C114.416 120.531 114.222 120.528 114.043 120.563C113.847 120.601 114.442 120.603 114.643 120.605C114.676 120.606 115.163 120.621 115.102 120.63C114.679 120.695 114.201 120.665 113.774 120.666C113.532 120.667 113.29 120.666 113.048 120.666C113.021 120.666 112.592 120.666 112.917 120.666C113.151 120.666 113.854 120.639 113.619 120.637C113.212 120.632 112.804 120.637 112.396 120.637C112.331 120.637 112.246 120.646 112.37 120.615C112.539 120.573 112.713 120.535 112.878 120.481C112.917 120.468 112.798 120.46 112.757 120.459C112.641 120.457 112.504 120.464 112.396 120.413C112.375 120.403 112.509 120.327 112.447 120.289C112.381 120.247 112.238 120.3 112.176 120.275C112.126 120.256 111.96 120.258 112.015 120.253C112.183 120.237 112.349 120.221 112.516 120.193C112.573 120.184 113.104 120.134 112.794 120.134C112.611 120.134 112.457 120.129 112.281 120.088C112.256 120.083 112.18 120.075 112.205 120.075C112.36 120.075 112.511 120.043 112.663 120.016C112.817 119.989 113.009 119.933 113.167 119.973C113.211 119.984 113.219 120.013 113.174 120.029C112.958 120.108 112.666 120.111 112.439 120.134C112.26 120.152 111.741 120.159 111.908 120.221C112.035 120.269 112.266 120.223 112.403 120.223C112.655 120.223 112.341 120.325 112.246 120.335C112.176 120.341 111.979 120.399 112.118 120.341C112.133 120.335 111.981 120.31 112.169 120.282C112.26 120.269 112.815 120.182 112.861 120.284C112.885 120.338 112.245 120.334 112.183 120.348C112.087 120.37 111.993 120.411 111.899 120.44C111.839 120.458 111.667 120.494 111.727 120.512C111.875 120.555 111.901 120.516 111.683 120.533C111.38 120.557 111.532 120.524 111.727 120.469C111.884 120.425 112.125 120.369 112.246 120.256C112.269 120.234 111.758 120.281 111.738 120.285C111.546 120.324 111.361 120.389 111.168 120.42C111.047 120.439 110.948 120.433 111.163 120.412C111.357 120.392 111.552 120.372 111.745 120.341C111.749 120.34 112.047 120.262 112.036 120.259C111.764 120.194 111.398 120.318 111.123 120.338C111.042 120.344 111.005 120.342 111.088 120.289C111.238 120.191 111.412 120.129 111.576 120.057C111.695 120.006 111.636 120.025 111.562 120.039C111.358 120.077 111.154 120.116 110.949 120.151C110.876 120.163 110.698 120.215 110.62 120.182C110.551 120.153 110.719 120.02 110.741 120.008C110.794 119.978 110.864 119.958 110.925 119.947C111.037 119.928 110.71 120.02 110.599 120.046C110.34 120.107 110.077 120.162 109.814 120.203C109.78 120.208 109.564 120.251 109.698 120.167C109.746 120.137 110.211 119.931 110.175 120.003C110.144 120.064 109.866 120.139 110.091 120.128C110.464 120.109 110.83 120.111 111.203 120.134C111.437 120.149 111.271 120.197 111.263 120.179C111.245 120.137 111.414 120.098 111.223 120.082C111.097 120.071 110.966 120.081 110.841 120.092C110.837 120.092 110.585 120.131 110.597 120.136C110.73 120.194 111.166 120.253 111.019 120.253C110.598 120.253 110.182 120.19 109.763 120.154C109.756 120.153 109.296 120.109 109.555 120.105C109.584 120.104 109.85 120.085 109.7 120.062C109.59 120.045 108.915 120.085 109.29 119.931C109.353 119.905 109.428 119.898 109.488 119.868C109.512 119.856 109.222 119.845 109.204 119.845C109.137 119.848 108.957 119.822 109.004 119.867C109.028 119.889 109.14 119.868 109.106 119.868C108.77 119.868 108.433 119.868 108.097 119.868C108.079 119.868 108.027 119.87 108.044 119.868C108.117 119.86 108.09 119.866 108.184 119.849C108.329 119.822 108.474 119.798 108.619 119.773C108.874 119.729 108.101 119.75 107.841 119.75C107.768 119.75 107.559 119.75 107.624 119.717C107.755 119.651 107.928 119.637 108.072 119.606C108.457 119.523 107.906 119.617 107.81 119.632C107.697 119.65 107.379 119.779 107.379 119.602" stroke="#085881" stroke-width="0.1" stroke-linecap="round"/>
<g filter="url(#filter1_i_211_35)">
<path d="M132.135 252.964L127.579 239.088L126.44 232.684L129.857 234.819L133.274 239.088L134.414 240.155L135.553 241.223L137.831 244.425L141.248 246.56L145.804 249.762L152.639 254.031L157.195 256.166L160.613 258.301L166.308 261.503L170.865 263.637L175.421 265.772L179.977 267.907L184.534 270.041L187.951 271.109L195.925 274.311L198.203 275.378H202.759H207.316H210.733H215.289L218.707 274.311L222.124 273.244L236.932 263.637L235.793 266.839L225.541 278.58V282.85C224.402 283.561 221.896 285.198 220.985 286.052C220.074 286.906 217.568 288.542 216.429 289.254C214.91 290.677 211.417 293.737 209.594 294.591C207.771 295.445 205.038 297.081 203.898 297.793L198.203 303.13L192.507 308.466L185.673 313.803L183.395 318.073L179.977 327.679L176.56 334.083L172.004 340.487L168.586 345.824L165.169 352.228L164.03 358.632H157.195L154.917 356.497L149.222 349.026L143.526 340.487L138.97 334.083L142.387 327.679L143.526 325.544V321.275V313.803V305.264L142.387 299.927L138.97 289.254L137.831 278.58L135.553 268.974L134.414 260.435L132.135 252.964Z" fill="#C9958E"/>
</g>
<path d="M43.2858 280.715L52.3986 279.648L51.2595 282.85L50.1204 286.052L47.8422 291.389L45.564 296.725L43.2858 300.995C42.5264 302.774 39.1369 306.635 38.7294 307.399C37.5903 309.534 37.5903 308.466 37.5903 309.534L36.4512 311.668L31.8948 318.072L28.4775 323.409L26.1993 330.881L19.3647 340.487L18.2256 344.756L14.8083 351.161L12.5301 356.497L11.391 360.767L9.11284 366.104V373.575L6.83465 379.979L4.55645 385.316L1.13916 389.585V312.736L5.69555 309.534L10.2519 304.197L14.8083 298.86L19.3647 294.591L23.9211 290.321L27.3384 287.119L33.0339 284.984L37.5903 282.85L43.2858 280.715Z" fill="#D3A29C"/>
<path d="M284.774 303.13L300.722 292.456V349.026V408.798L292.748 412H287.053H279.079H271.105H256.297L254.019 407.731L249.462 398.124L248.323 389.586L246.045 383.181L244.906 377.845V372.508V367.171V359.7L248.323 353.295L250.601 349.026V343.689L251.741 337.285L254.019 335.15L256.297 330.881L260.853 327.679L265.41 320.207L272.244 313.803L276.801 311.668L280.218 307.399L281.357 305.264L284.774 303.13Z" fill="#D09A96"/>
<path d="M148.083 410.933L179.977 386.384L186.812 381.047L220.985 366.104L246.045 355.43L244.906 361.834V371.441L246.045 382.114L248.323 391.72L250.601 401.327L254.019 407.731L256.297 412L148.083 410.933Z" fill="#111111"/>
<path d="M185.673 382.114L148.083 410.933H126.44V408.798L129.857 407.73L134.414 403.461L137.831 401.326V400.259V398.124L143.526 393.855V405.596L148.083 397.057V371.44L152.639 375.71L157.195 378.912L159.474 381.047L160.613 375.71V368.238L157.195 358.632H164.03V362.901V368.238L166.308 378.912V384.249L185.673 382.114Z" fill="#C8948D"/>
<rect x="0.5" y="0.5" width="302" height="411" stroke="black"/>
<defs>
<filter id="filter0_i_211_35" x="188.79" y="218.408" width="55.2642" height="12.3716" filterUnits="userSpaceOnUse" color-interpolation-filters="sRGB">
<feFlood flood-opacity="0" result="BackgroundImageFix"/>
<feBlend mode="normal" in="SourceGraphic" in2="BackgroundImageFix" result="shape"/>
<feColorMatrix in="SourceAlpha" type="matrix" values="0 0 0 0 0 0 0 0 0 0 0 0 0 0 0 0 0 0 127 0" result="hardAlpha"/>
<feOffset dy="4"/>
<feGaussianBlur stdDeviation="30"/>
<feComposite in2="hardAlpha" operator="arithmetic" k2="-1" k3="1"/>
<feColorMatrix type="matrix" values="0 0 0 0 0.7625 0 0 0 0 0.40349 0 0 0 0 0.40349 0 0 0 0.35 0"/>
<feBlend mode="darken" in2="shape" result="effect1_innerShadow_211_35"/>
</filter>
<filter id="filter1_i_211_35" x="126.44" y="232.684" width="110.492" height="129.948" filterUnits="userSpaceOnUse" color-interpolation-filters="sRGB">
<feFlood flood-opacity="0" result="BackgroundImageFix"/>
<feBlend mode="normal" in="SourceGraphic" in2="BackgroundImageFix" result="shape"/>
<feColorMatrix in="SourceAlpha" type="matrix" values="0 0 0 0 0 0 0 0 0 0 0 0 0 0 0 0 0 0 127 0" result="hardAlpha"/>
<feOffset dy="4"/>
<feGaussianBlur stdDeviation="3"/>
<feComposite in2="hardAlpha" operator="arithmetic" k2="-1" k3="1"/>
<feColorMatrix type="matrix" values="0 0 0 0 0.495833 0 0 0 0 0.373836 0 0 0 0 0.357413 0 0 0 0.25 0"/>
<feBlend mode="normal" in2="shape" result="effect1_innerShadow_211_35"/>
</filter>
</defs>
</svg>
