<svg width="379" height="71" viewBox="0 0 379 71" fill="none" xmlns="http://www.w3.org/2000/svg">
<path d="M47 70H1.2L0.2 61.7C1.06667 60.5667 2.9 59.4667 5.7 58.4V12.7C2.96667 11.7 1.13333 10.5667 0.2 9.29999L1.2 0.999994H24.6L25.6 9.29999C24.5333 10.5667 22.7 11.7 20.1 12.7V59.1H35.9C36.7667 55.6333 38 53.1667 39.6 51.7L47 52.6V70ZM294.086 11.9C291.819 11.3 289.453 11 286.986 11C284.519 11 282.519 11.6333 280.986 12.9C279.519 14.1 278.786 15.8333 278.786 18.1C278.786 20.3 279.353 22.0333 280.486 23.3C281.619 24.5667 283.853 25.6667 287.186 26.6L296.086 29.2C300.886 30.6 304.686 32.8 307.486 35.8C310.353 38.7333 311.786 43.0667 311.786 48.8C311.786 55.6 309.319 60.9667 304.386 64.9C299.519 68.8333 293.453 70.8 286.186 70.8C282.186 70.8 278.053 70.3 273.786 69.3C269.586 68.2333 266.086 66.7667 263.286 64.9C263.286 64.5 263.286 63.7333 263.286 62.6C263.286 61.4667 263.519 59.5333 263.986 56.8C264.453 54.0667 265.119 51.8333 265.986 50.1H275.486C276.553 52.1667 277.186 54.9333 277.386 58.4C279.719 59.4 282.419 59.9 285.486 59.9C288.619 59.9 291.186 59.1667 293.186 57.7C295.186 56.2333 296.186 54.1333 296.186 51.4C296.186 50.1333 296.086 49.1 295.886 48.3C295.686 47.4333 295.053 46.5333 293.986 45.6C292.986 44.6 291.519 43.8 289.586 43.2L279.286 40.2C268.819 37.2 263.586 30.5333 263.586 20.2C263.586 14.1333 265.786 9.3 270.186 5.7C274.586 2.03333 280.319 0.199999 287.386 0.199999C294.519 0.199999 301.486 1.8 308.286 5C308.286 5.4 308.286 6.16666 308.286 7.3C308.286 8.43333 308.053 10.3667 307.586 13.1C307.119 15.8333 306.453 18.0667 305.586 19.8H296.086C294.953 18.2 294.286 15.5667 294.086 11.9Z" fill="#FEAFBE"/>
<path d="M86.1953 0.499995L106.095 58.2C108.895 59.2 110.862 60.3667 111.995 61.7L110.995 70H87.5953L86.5953 61.7C87.3953 60.6333 88.9953 59.6333 91.3953 58.7L88.6953 50.3H68.6953L66.1953 58.4C68.5286 59.3333 70.262 60.4333 71.3953 61.7L70.3953 70H47.5953L46.5953 61.7C47.7953 60.1667 50.0286 58.9 53.2953 57.9L72.4953 0.499995H86.1953ZM77.8953 14.5C77.8953 18.5667 77.062 23.3 75.3953 28.7L71.4953 41.1H85.7953L81.9953 28.9C80.462 24.2333 79.5953 20 79.3953 16.2L79.2953 14.5H77.8953ZM352.895 0.499995L372.795 58.2C375.595 59.2 377.561 60.3667 378.695 61.7L377.695 70H354.295L353.295 61.7C354.095 60.6333 355.695 59.6333 358.095 58.7L355.395 50.3H335.395L332.895 58.4C335.228 59.3333 336.961 60.4333 338.095 61.7L337.095 70H314.295L313.295 61.7C314.495 60.1667 316.728 58.9 319.995 57.9L339.195 0.499995H352.895ZM344.595 14.5C344.595 18.5667 343.761 23.3 342.095 28.7L338.195 41.1H352.495L348.695 28.9C347.161 24.2333 346.295 20 346.095 16.2L345.995 14.5H344.595Z" fill="#97D4D9"/>
<path d="M168.948 21.2C168.948 25.7333 167.515 29.5333 164.648 32.6C161.848 35.6667 158.315 38 154.048 39.6C157.382 41 159.582 42.7 160.648 44.7L167.948 58.6C171.082 59.6667 173.215 60.9 174.348 62.3L173.348 70H156.448L144.948 45.5C143.882 43.0333 142.648 41.8 141.248 41.8H134.748V57.8C139.615 58.8667 142.648 60.1667 143.848 61.7L142.848 70H115.848L114.848 61.7C115.715 60.5667 117.548 59.4667 120.348 58.4V12.7C117.615 11.7 115.782 10.5667 114.848 9.29999L115.848 0.999994H141.348C150.682 1.13333 157.615 2.63333 162.148 5.5C166.682 8.36666 168.948 13.6 168.948 21.2ZM140.648 11.9H134.748V30.9H140.448C144.982 30.9 148.348 30.2333 150.548 28.9C152.815 27.5 153.948 25.0333 153.948 21.5C153.948 17.9667 152.815 15.5 150.548 14.1C148.282 12.6333 144.982 11.9 140.648 11.9Z" fill="#A45A49"/>
<path d="M202.041 0.999994L203.041 9.29999C201.975 10.5667 200.141 11.7 197.541 12.7V58.4C200.208 59.4667 202.041 60.5667 203.041 61.7L202.041 70H178.641L177.641 61.7C178.508 60.5667 180.341 59.4667 183.141 58.4V12.7C180.408 11.7 178.575 10.5667 177.641 9.29999L178.641 0.999994H202.041Z" fill="#EFC764"/>
<path d="M240.277 11.9C238.011 11.3 235.644 11 233.177 11C230.711 11 228.711 11.6333 227.177 12.9C225.711 14.1 224.977 15.8333 224.977 18.1C224.977 20.3 225.544 22.0333 226.677 23.3C227.811 24.5667 230.044 25.6667 233.377 26.6L242.277 29.2C247.077 30.6 250.877 32.8 253.677 35.8C256.544 38.7333 257.977 43.0667 257.977 48.8C257.977 55.6 255.511 60.9667 250.577 64.9C245.711 68.8333 239.644 70.8 232.377 70.8C228.377 70.8 224.244 70.3 219.977 69.3C215.777 68.2333 212.277 66.7667 209.477 64.9C209.477 64.5 209.477 63.7333 209.477 62.6C209.477 61.4667 209.711 59.5333 210.177 56.8C210.644 54.0667 211.311 51.8333 212.177 50.1H221.677C222.744 52.1667 223.377 54.9333 223.577 58.4C225.911 59.4 228.611 59.9 231.677 59.9C234.811 59.9 237.377 59.1667 239.377 57.7C241.377 56.2333 242.377 54.1333 242.377 51.4C242.377 50.1333 242.277 49.1 242.077 48.3C241.877 47.4333 241.244 46.5333 240.177 45.6C239.177 44.6 237.711 43.8 235.777 43.2L225.477 40.2C215.011 37.2 209.777 30.5333 209.777 20.2C209.777 14.1333 211.977 9.3 216.377 5.7C220.777 2.03333 226.511 0.199999 233.577 0.199999C240.711 0.199999 247.677 1.8 254.477 5C254.477 5.4 254.477 6.16666 254.477 7.3C254.477 8.43333 254.244 10.3667 253.777 13.1C253.311 15.8333 252.644 18.0667 251.777 19.8H242.277C241.144 18.2 240.477 15.5667 240.277 11.9Z" fill="#B3DFD3"/>
</svg>
